<svg width="701" height="166" viewBox="0 0 701 166" fill="none" xmlns="http://www.w3.org/2000/svg">
<path d="M575.988 161.366V163.786H575.258V161.366L572.458 156.786H573.248L575.648 160.716L578.048 156.786H578.788L575.988 161.366ZM581.34 163.836C580.834 163.836 580.377 163.723 579.97 163.496C579.564 163.263 579.244 162.943 579.01 162.536C578.777 162.13 578.66 161.67 578.66 161.156C578.66 160.643 578.777 160.183 579.01 159.776C579.244 159.37 579.564 159.053 579.97 158.826C580.377 158.6 580.834 158.486 581.34 158.486C581.847 158.486 582.304 158.6 582.71 158.826C583.117 159.053 583.434 159.37 583.66 159.776C583.894 160.183 584.01 160.643 584.01 161.156C584.01 161.67 583.894 162.13 583.66 162.536C583.434 162.943 583.117 163.263 582.71 163.496C582.304 163.723 581.847 163.836 581.34 163.836ZM581.34 163.206C581.714 163.206 582.047 163.123 582.34 162.956C582.64 162.783 582.874 162.54 583.04 162.226C583.207 161.913 583.29 161.556 583.29 161.156C583.29 160.756 583.207 160.4 583.04 160.086C582.874 159.773 582.64 159.533 582.34 159.366C582.047 159.193 581.714 159.106 581.34 159.106C580.967 159.106 580.63 159.193 580.33 159.366C580.037 159.533 579.804 159.773 579.63 160.086C579.464 160.4 579.38 160.756 579.38 161.156C579.38 161.556 579.464 161.913 579.63 162.226C579.804 162.54 580.037 162.783 580.33 162.956C580.63 163.123 580.967 163.206 581.34 163.206ZM590.2 158.526V163.786H589.52V162.826C589.333 163.146 589.076 163.396 588.75 163.576C588.423 163.75 588.05 163.836 587.63 163.836C586.943 163.836 586.4 163.646 586 163.266C585.606 162.88 585.41 162.316 585.41 161.576V158.526H586.12V161.506C586.12 162.06 586.256 162.48 586.53 162.766C586.803 163.053 587.193 163.196 587.7 163.196C588.253 163.196 588.69 163.03 589.01 162.696C589.33 162.356 589.49 161.886 589.49 161.286V158.526H590.2ZM592.868 159.556C593.035 159.203 593.282 158.936 593.608 158.756C593.942 158.576 594.352 158.486 594.838 158.486V159.176L594.668 159.166C594.115 159.166 593.682 159.336 593.368 159.676C593.055 160.016 592.898 160.493 592.898 161.106V163.786H592.188V158.526H592.868V159.556ZM603.359 161.916H599.459L598.619 163.786H597.849L601.049 156.786H601.779L604.979 163.786H604.199L603.359 161.916ZM603.089 161.316L601.409 157.556L599.729 161.316H603.089ZM608.697 158.486C609.19 158.486 609.637 158.6 610.037 158.826C610.437 159.046 610.75 159.36 610.977 159.766C611.204 160.173 611.317 160.636 611.317 161.156C611.317 161.683 611.204 162.15 610.977 162.556C610.75 162.963 610.437 163.28 610.037 163.506C609.644 163.726 609.197 163.836 608.697 163.836C608.27 163.836 607.884 163.75 607.537 163.576C607.197 163.396 606.917 163.136 606.697 162.796V165.726H605.987V158.526H606.667V159.566C606.88 159.22 607.16 158.953 607.507 158.766C607.86 158.58 608.257 158.486 608.697 158.486ZM608.647 163.206C609.014 163.206 609.347 163.123 609.647 162.956C609.947 162.783 610.18 162.54 610.347 162.226C610.52 161.913 610.607 161.556 610.607 161.156C610.607 160.756 610.52 160.403 610.347 160.096C610.18 159.783 609.947 159.54 609.647 159.366C609.347 159.193 609.014 159.106 608.647 159.106C608.274 159.106 607.937 159.193 607.637 159.366C607.344 159.54 607.11 159.783 606.937 160.096C606.77 160.403 606.687 160.756 606.687 161.156C606.687 161.556 606.77 161.913 606.937 162.226C607.11 162.54 607.344 162.783 607.637 162.956C607.937 163.123 608.274 163.206 608.647 163.206ZM615.474 158.486C615.968 158.486 616.414 158.6 616.814 158.826C617.214 159.046 617.528 159.36 617.754 159.766C617.981 160.173 618.094 160.636 618.094 161.156C618.094 161.683 617.981 162.15 617.754 162.556C617.528 162.963 617.214 163.28 616.814 163.506C616.421 163.726 615.974 163.836 615.474 163.836C615.048 163.836 614.661 163.75 614.314 163.576C613.974 163.396 613.694 163.136 613.474 162.796V165.726H612.764V158.526H613.444V159.566C613.658 159.22 613.938 158.953 614.284 158.766C614.638 158.58 615.034 158.486 615.474 158.486ZM615.424 163.206C615.791 163.206 616.124 163.123 616.424 162.956C616.724 162.783 616.958 162.54 617.124 162.226C617.298 161.913 617.384 161.556 617.384 161.156C617.384 160.756 617.298 160.403 617.124 160.096C616.958 159.783 616.724 159.54 616.424 159.366C616.124 159.193 615.791 159.106 615.424 159.106C615.051 159.106 614.714 159.193 614.414 159.366C614.121 159.54 613.888 159.783 613.714 160.096C613.548 160.403 613.464 160.756 613.464 161.156C613.464 161.556 613.548 161.913 613.714 162.226C613.888 162.54 614.121 162.783 614.414 162.956C614.714 163.123 615.051 163.206 615.424 163.206Z" fill="black"/>
<rect x="582.812" y="128.011" width="23.7266" height="22.1839" rx="8.5" fill="#14E2BE" stroke="#14E2BE"/>
<path d="M594.601 148.237C594.348 148.237 594.092 148.173 593.869 148.053L591.541 146.762C591.194 146.578 591.364 146.514 591.477 146.479C591.941 146.327 592.035 146.295 592.53 146.03C592.583 146.001 592.65 146.012 592.703 146.044L594.492 147.038C594.556 147.073 594.646 147.073 594.707 147.038L601.675 143.267C601.74 143.231 601.781 143.161 601.781 143.09V135.548C601.781 135.473 601.74 135.406 601.672 135.367L594.707 131.6C594.643 131.564 594.556 131.564 594.492 131.6L587.531 135.371C587.463 135.406 587.421 135.477 587.421 135.551V143.09C587.421 143.161 587.463 143.231 587.531 143.263L589.44 144.296C590.477 144.781 591.111 144.211 591.111 143.635V136.192C591.111 136.085 591.202 136.004 591.315 136.004H592.198C592.307 136.004 592.401 136.085 592.401 136.192V143.638C592.401 144.933 591.647 145.676 590.338 145.676C589.934 145.676 589.617 145.676 588.734 145.265L586.908 144.278C586.455 144.034 586.176 143.578 586.176 143.086V135.548C586.176 135.059 586.455 134.6 586.908 134.356L593.869 130.584C594.311 130.351 594.895 130.351 595.333 130.584L602.302 134.359C602.754 134.603 603.034 135.059 603.034 135.551V143.09C603.034 143.578 602.754 144.034 602.302 144.282L595.333 148.053C595.11 148.173 594.858 148.237 594.601 148.237ZM600.227 140.805C600.227 139.393 599.208 139.018 597.069 138.753C594.903 138.484 594.684 138.346 594.684 137.872C594.684 137.479 594.869 136.956 596.472 136.956C597.902 136.956 598.431 137.246 598.649 138.151C598.668 138.236 598.751 138.3 598.846 138.3H599.751C599.808 138.3 599.861 138.279 599.898 138.24C599.936 138.201 599.955 138.148 599.951 138.095C599.812 136.535 598.706 135.809 596.472 135.809C594.484 135.809 593.299 136.595 593.299 137.914C593.299 139.343 594.48 139.74 596.386 139.917C598.668 140.125 598.846 140.44 598.846 140.861C598.846 141.59 598.219 141.901 596.752 141.901C594.907 141.901 594.503 141.466 594.367 140.606C594.352 140.514 594.269 140.447 594.167 140.447H593.265C593.152 140.447 593.065 140.532 593.065 140.635C593.065 141.735 593.703 143.047 596.755 143.047C598.959 143.044 600.227 142.227 600.227 140.805V140.805Z" fill="white"/>
<path d="M663.248 124.42H538.721C511.856 124.42 490 103.576 490 77.9553C490 52.3346 511.856 31.4905 538.721 31.4905H547.58C552.454 22.1701 559.965 14.2848 569.292 8.69533C578.755 3.02027 589.752 0.00310507 600.985 0C632.142 0 658.111 22.9791 660.528 52.4843H663.248C684.065 52.4843 701 68.6195 701 88.4523C701 108.285 684.065 124.42 663.248 124.42ZM538.721 33.4475C513.007 33.4475 492.087 53.4136 492.087 77.9554C492.087 102.497 513.007 122.463 538.721 122.463H663.248C682.914 122.463 698.913 107.206 698.913 88.4523C698.913 69.6985 682.914 54.4413 663.248 54.4413H658.572L658.513 53.5223C656.633 24.6073 631.364 1.95701 600.985 1.95701C579.109 1.95701 558.773 14.0997 549.174 32.8917L548.891 33.4475H538.721Z" fill="#3F3D56"/>
<path d="M585.199 105.254V72.1093H558.821V105.254H585.199Z" fill="#2F2E41"/>
<path d="M589.73 71.0972H554.289V84.2537H589.73V71.0972Z" fill="#3F3D56"/>
<path d="M589.73 85.7718H554.289V98.9283H589.73V85.7718Z" fill="#3F3D56"/>
<path d="M589.73 100.446H554.289V113.603H589.73V100.446Z" fill="#3F3D56"/>
<path d="M589.73 76.6756H554.289V78.6997H589.73V76.6756Z" fill="#14E2BE"/>
<path d="M589.73 91.3502H554.289V93.3743H589.73V91.3502Z" fill="#14E2BE"/>
<path d="M589.73 106.025H554.289V108.049H589.73V106.025Z" fill="#14E2BE"/>
<path d="M582.832 73.7539C583.28 73.7539 583.643 73.414 583.643 72.9948C583.643 72.5756 583.28 72.2358 582.832 72.2358C582.383 72.2358 582.02 72.5756 582.02 72.9948C582.02 73.414 582.383 73.7539 582.832 73.7539Z" fill="#14E2BE"/>
<path d="M585.672 73.7539C586.121 73.7539 586.484 73.414 586.484 72.9948C586.484 72.5756 586.121 72.2358 585.672 72.2358C585.224 72.2358 584.861 72.5756 584.861 72.9948C584.861 73.414 585.224 73.7539 585.672 73.7539Z" fill="#14E2BE"/>
<path d="M588.513 73.7539C588.961 73.7539 589.325 73.414 589.325 72.9948C589.325 72.5756 588.961 72.2358 588.513 72.2358C588.065 72.2358 587.701 72.5756 587.701 72.9948C587.701 73.414 588.065 73.7539 588.513 73.7539Z" fill="#14E2BE"/>
<path d="M582.832 88.1754C583.28 88.1754 583.643 87.8356 583.643 87.4164C583.643 86.9972 583.28 86.6573 582.832 86.6573C582.383 86.6573 582.02 86.9972 582.02 87.4164C582.02 87.8356 582.383 88.1754 582.832 88.1754Z" fill="#14E2BE"/>
<path d="M585.672 88.1754C586.121 88.1754 586.484 87.8356 586.484 87.4164C586.484 86.9972 586.121 86.6573 585.672 86.6573C585.224 86.6573 584.861 86.9972 584.861 87.4164C584.861 87.8356 585.224 88.1754 585.672 88.1754Z" fill="#14E2BE"/>
<path d="M588.513 88.1754C588.961 88.1754 589.325 87.8356 589.325 87.4164C589.325 86.9972 588.961 86.6573 588.513 86.6573C588.065 86.6573 587.701 86.9972 587.701 87.4164C587.701 87.8356 588.065 88.1754 588.513 88.1754Z" fill="#14E2BE"/>
<path d="M582.832 102.597C583.28 102.597 583.643 102.257 583.643 101.838C583.643 101.419 583.28 101.079 582.832 101.079C582.383 101.079 582.02 101.419 582.02 101.838C582.02 102.257 582.383 102.597 582.832 102.597Z" fill="#14E2BE"/>
<path d="M585.672 102.597C586.121 102.597 586.484 102.257 586.484 101.838C586.484 101.419 586.121 101.079 585.672 101.079C585.224 101.079 584.861 101.419 584.861 101.838C584.861 102.257 585.224 102.597 585.672 102.597Z" fill="#14E2BE"/>
<path d="M588.513 102.597C588.961 102.597 589.325 102.257 589.325 101.838C589.325 101.419 588.961 101.079 588.513 101.079C588.065 101.079 587.701 101.419 587.701 101.838C587.701 102.257 588.065 102.597 588.513 102.597Z" fill="#14E2BE"/>
<path d="M631.355 105.254V72.1093H604.977V105.254H631.355Z" fill="#2F2E41"/>
<path d="M635.887 71.0972H600.445V84.2537H635.887V71.0972Z" fill="#3F3D56"/>
<path d="M635.887 85.7718H600.445V98.9283H635.887V85.7718Z" fill="#3F3D56"/>
<path d="M635.887 100.446H600.445V113.603H635.887V100.446Z" fill="#3F3D56"/>
<path d="M635.887 76.6756H600.445V78.6997H635.887V76.6756Z" fill="#14E2BE"/>
<path d="M635.887 91.3502H600.445V93.3743H635.887V91.3502Z" fill="#14E2BE"/>
<path d="M635.887 106.025H600.445V108.049H635.887V106.025Z" fill="#14E2BE"/>
<path d="M628.988 73.7539C629.436 73.7539 629.799 73.414 629.799 72.9948C629.799 72.5756 629.436 72.2358 628.988 72.2358C628.54 72.2358 628.176 72.5756 628.176 72.9948C628.176 73.414 628.54 73.7539 628.988 73.7539Z" fill="#14E2BE"/>
<path d="M631.829 73.7539C632.277 73.7539 632.64 73.414 632.64 72.9948C632.64 72.5756 632.277 72.2358 631.829 72.2358C631.38 72.2358 631.017 72.5756 631.017 72.9948C631.017 73.414 631.38 73.7539 631.829 73.7539Z" fill="#14E2BE"/>
<path d="M634.669 73.7539C635.118 73.7539 635.481 73.414 635.481 72.9948C635.481 72.5756 635.118 72.2358 634.669 72.2358C634.221 72.2358 633.858 72.5756 633.858 72.9948C633.858 73.414 634.221 73.7539 634.669 73.7539Z" fill="#14E2BE"/>
<path d="M628.988 88.1754C629.436 88.1754 629.799 87.8356 629.799 87.4164C629.799 86.9972 629.436 86.6573 628.988 86.6573C628.54 86.6573 628.176 86.9972 628.176 87.4164C628.176 87.8356 628.54 88.1754 628.988 88.1754Z" fill="#14E2BE"/>
<path d="M631.829 88.1754C632.277 88.1754 632.64 87.8356 632.64 87.4164C632.64 86.9972 632.277 86.6573 631.829 86.6573C631.38 86.6573 631.017 86.9972 631.017 87.4164C631.017 87.8356 631.38 88.1754 631.829 88.1754Z" fill="#14E2BE"/>
<path d="M634.669 88.1754C635.118 88.1754 635.481 87.8356 635.481 87.4164C635.481 86.9972 635.118 86.6573 634.669 86.6573C634.221 86.6573 633.858 86.9972 633.858 87.4164C633.858 87.8356 634.221 88.1754 634.669 88.1754Z" fill="#14E2BE"/>
<path d="M628.988 102.597C629.436 102.597 629.799 102.257 629.799 101.838C629.799 101.419 629.436 101.079 628.988 101.079C628.54 101.079 628.176 101.419 628.176 101.838C628.176 102.257 628.54 102.597 628.988 102.597Z" fill="#14E2BE"/>
<path d="M631.829 102.597C632.277 102.597 632.64 102.257 632.64 101.838C632.64 101.419 632.277 101.079 631.829 101.079C631.38 101.079 631.017 101.419 631.017 101.838C631.017 102.257 631.38 102.597 631.829 102.597Z" fill="#14E2BE"/>
<path d="M634.669 102.597C635.118 102.597 635.481 102.257 635.481 101.838C635.481 101.419 635.118 101.079 634.669 101.079C634.221 101.079 633.858 101.419 633.858 101.838C633.858 102.257 634.221 102.597 634.669 102.597Z" fill="#14E2BE"/>
<path d="M608.277 58.8858V25.7415H581.899V58.8858H608.277Z" fill="#2F2E41"/>
<path d="M612.809 24.7295H577.367V37.886H612.809V24.7295Z" fill="#3F3D56"/>
<path d="M612.809 39.4041H577.367V52.5606H612.809V39.4041Z" fill="#3F3D56"/>
<path d="M612.809 54.0786H577.367V67.2351H612.809V54.0786Z" fill="#3F3D56"/>
<path d="M612.809 30.3079H577.367V32.3319H612.809V30.3079Z" fill="#14E2BE"/>
<path d="M612.809 44.9825H577.367V47.0065H612.809V44.9825Z" fill="#14E2BE"/>
<path d="M612.809 59.657H577.367V61.681H612.809V59.657Z" fill="#14E2BE"/>
<path d="M605.91 27.3861C606.358 27.3861 606.721 27.0463 606.721 26.6271C606.721 26.2079 606.358 25.8681 605.91 25.8681C605.461 25.8681 605.098 26.2079 605.098 26.6271C605.098 27.0463 605.461 27.3861 605.91 27.3861Z" fill="#14E2BE"/>
<path d="M608.75 27.3861C609.199 27.3861 609.562 27.0463 609.562 26.6271C609.562 26.2079 609.199 25.8681 608.75 25.8681C608.302 25.8681 607.939 26.2079 607.939 26.6271C607.939 27.0463 608.302 27.3861 608.75 27.3861Z" fill="#14E2BE"/>
<path d="M611.591 27.3861C612.039 27.3861 612.403 27.0463 612.403 26.6271C612.403 26.2079 612.039 25.8681 611.591 25.8681C611.143 25.8681 610.779 26.2079 610.779 26.6271C610.779 27.0463 611.143 27.3861 611.591 27.3861Z" fill="#14E2BE"/>
<path d="M605.91 41.8076C606.358 41.8076 606.721 41.4678 606.721 41.0486C606.721 40.6294 606.358 40.2896 605.91 40.2896C605.461 40.2896 605.098 40.6294 605.098 41.0486C605.098 41.4678 605.461 41.8076 605.91 41.8076Z" fill="#14E2BE"/>
<path d="M608.75 41.8076C609.199 41.8076 609.562 41.4678 609.562 41.0486C609.562 40.6294 609.199 40.2896 608.75 40.2896C608.302 40.2896 607.939 40.6294 607.939 41.0486C607.939 41.4678 608.302 41.8076 608.75 41.8076Z" fill="#14E2BE"/>
<path d="M611.591 41.8076C612.039 41.8076 612.403 41.4678 612.403 41.0486C612.403 40.6294 612.039 40.2896 611.591 40.2896C611.143 40.2896 610.779 40.6294 610.779 41.0486C610.779 41.4678 611.143 41.8076 611.591 41.8076Z" fill="#14E2BE"/>
<path d="M605.91 56.2292C606.358 56.2292 606.721 55.8893 606.721 55.4701C606.721 55.0509 606.358 54.7111 605.91 54.7111C605.461 54.7111 605.098 55.0509 605.098 55.4701C605.098 55.8893 605.461 56.2292 605.91 56.2292Z" fill="#14E2BE"/>
<path d="M608.75 56.2292C609.199 56.2292 609.562 55.8893 609.562 55.4701C609.562 55.0509 609.199 54.7111 608.75 54.7111C608.302 54.7111 607.939 55.0509 607.939 55.4701C607.939 55.8893 608.302 56.2292 608.75 56.2292Z" fill="#14E2BE"/>
<path d="M611.591 56.2292C612.039 56.2292 612.403 55.8893 612.403 55.4701C612.403 55.0509 612.039 54.7111 611.591 54.7111C611.143 54.7111 610.779 55.0509 610.779 55.4701C610.779 55.8893 611.143 56.2292 611.591 56.2292Z" fill="#14E2BE"/>
<path d="M111.221 97.8806V66.3404H68.0603V97.8806H111.221Z" fill="#2F2E41"/>
<path d="M118.593 65.8002H59.7603V87.6401H118.593V65.8002Z" fill="#3F3D56"/>
<path d="M118.593 90.1601H59.7603V112H118.593V90.1601Z" fill="#3F3D56"/>
<path d="M118.593 75.0604H59.7603V78.4204H118.593V75.0604Z" fill="#14E2BE"/>
<path d="M118.593 99.4202H59.7603V102.78H118.593V99.4202Z" fill="#14E2BE"/>
<path d="M107.141 69.7902C107.885 69.7902 108.488 69.2261 108.488 68.5302C108.488 67.8343 107.885 67.2702 107.141 67.2702C106.397 67.2702 105.794 67.8343 105.794 68.5302C105.794 69.2261 106.397 69.7902 107.141 69.7902Z" fill="#14E2BE"/>
<path d="M111.857 69.7902C112.601 69.7902 113.204 69.2261 113.204 68.5302C113.204 67.8343 112.601 67.2702 111.857 67.2702C111.113 67.2702 110.509 67.8343 110.509 68.5302C110.509 69.2261 111.113 69.7902 111.857 69.7902Z" fill="#14E2BE"/>
<path d="M116.572 69.7902C117.316 69.7902 117.92 69.2261 117.92 68.5302C117.92 67.8343 117.316 67.2702 116.572 67.2702C115.828 67.2702 115.225 67.8343 115.225 68.5302C115.225 69.2261 115.828 69.7902 116.572 69.7902Z" fill="#14E2BE"/>
<path d="M107.141 93.7301C107.885 93.7301 108.488 93.1659 108.488 92.4701C108.488 91.7742 107.885 91.2101 107.141 91.2101C106.397 91.2101 105.794 91.7742 105.794 92.4701C105.794 93.1659 106.397 93.7301 107.141 93.7301Z" fill="#14E2BE"/>
<path d="M111.857 93.7301C112.601 93.7301 113.204 93.1659 113.204 92.4701C113.204 91.7742 112.601 91.2101 111.857 91.2101C111.113 91.2101 110.509 91.7742 110.509 92.4701C110.509 93.1659 111.113 93.7301 111.857 93.7301Z" fill="#14E2BE"/>
<path d="M116.572 93.7301C117.316 93.7301 117.92 93.1659 117.92 92.4701C117.92 91.7742 117.316 91.2101 116.572 91.2101C115.828 91.2101 115.225 91.7742 115.225 92.4701C115.225 93.1659 115.828 93.7301 116.572 93.7301Z" fill="#14E2BE"/>
<path d="M51.4602 97.3404L51.4602 20.98L8.30004 20.98L8.30004 97.3404H51.4602Z" fill="#2F2E41"/>
<path d="M58.833 65.8002H0V87.6401H58.833V65.8002Z" fill="#3F3D56"/>
<path d="M58.833 75.0604H0V78.4204H58.833V75.0604Z" fill="#14E2BE"/>
<path d="M47.3808 69.7902C48.1249 69.7902 48.7281 69.2261 48.7281 68.5302C48.7281 67.8343 48.1249 67.2702 47.3808 67.2702C46.6367 67.2702 46.0334 67.8343 46.0334 68.5302C46.0334 69.2261 46.6367 69.7902 47.3808 69.7902Z" fill="#14E2BE"/>
<path d="M52.0964 69.7902C52.8405 69.7902 53.4437 69.2261 53.4437 68.5302C53.4437 67.8343 52.8405 67.2702 52.0964 67.2702C51.3523 67.2702 50.7491 67.8343 50.7491 68.5302C50.7491 69.2261 51.3523 69.7902 52.0964 69.7902Z" fill="#14E2BE"/>
<path d="M56.812 69.7902C57.5561 69.7902 58.1593 69.2261 58.1593 68.5302C58.1593 67.8343 57.5561 67.2702 56.812 67.2702C56.0679 67.2702 55.4647 67.8343 55.4647 68.5302C55.4647 69.2261 56.0679 69.7902 56.812 69.7902Z" fill="#14E2BE"/>
<path d="M58.833 40.9001H0V62.74H58.833V40.9001Z" fill="#3F3D56"/>
<path d="M58.833 50.1603H0V53.5203H58.833V50.1603Z" fill="#14E2BE"/>
<path d="M47.3808 44.8901C48.1249 44.8901 48.7281 44.3259 48.7281 43.6301C48.7281 42.9342 48.1249 42.3701 47.3808 42.3701C46.6367 42.3701 46.0334 42.9342 46.0334 43.6301C46.0334 44.3259 46.6367 44.8901 47.3808 44.8901Z" fill="#14E2BE"/>
<path d="M52.0964 44.8901C52.8405 44.8901 53.4437 44.3259 53.4437 43.6301C53.4437 42.9342 52.8405 42.3701 52.0964 42.3701C51.3523 42.3701 50.7491 42.9342 50.7491 43.6301C50.7491 44.3259 51.3523 44.8901 52.0964 44.8901Z" fill="#14E2BE"/>
<path d="M56.812 44.8901C57.5561 44.8901 58.1593 44.3259 58.1593 43.6301C58.1593 42.9342 57.5561 42.3701 56.812 42.3701C56.0679 42.3701 55.4647 42.9342 55.4647 43.6301C55.4647 44.3259 56.0679 44.8901 56.812 44.8901Z" fill="#14E2BE"/>
<path d="M58.833 16H0V37.8399H58.833V16Z" fill="#3F3D56"/>
<path d="M58.833 25.2602H0V28.6202H58.833V25.2602Z" fill="#14E2BE"/>
<path d="M47.3808 19.9899C48.1249 19.9899 48.7281 19.4258 48.7281 18.7299C48.7281 18.0341 48.1249 17.4699 47.3808 17.4699C46.6367 17.4699 46.0334 18.0341 46.0334 18.7299C46.0334 19.4258 46.6367 19.9899 47.3808 19.9899Z" fill="#14E2BE"/>
<path d="M52.0964 19.9899C52.8405 19.9899 53.4437 19.4258 53.4437 18.7299C53.4437 18.0341 52.8405 17.4699 52.0964 17.4699C51.3523 17.4699 50.7491 18.0341 50.7491 18.7299C50.7491 19.4258 51.3523 19.9899 52.0964 19.9899Z" fill="#14E2BE"/>
<path d="M56.812 19.9899C57.5561 19.9899 58.1593 19.4258 58.1593 18.7299C58.1593 18.0341 57.5561 17.4699 56.812 17.4699C56.0679 17.4699 55.4647 18.0341 55.4647 18.7299C55.4647 19.4258 56.0679 19.9899 56.812 19.9899Z" fill="#14E2BE"/>
<path d="M58.833 90.1601H0V112H58.833V90.1601Z" fill="#3F3D56"/>
<path d="M58.833 99.4202H0V102.78H58.833V99.4202Z" fill="#14E2BE"/>
<path d="M47.3808 93.73C48.1249 93.73 48.7281 93.1659 48.7281 92.47C48.7281 91.7742 48.1249 91.2101 47.3808 91.2101C46.6367 91.2101 46.0334 91.7742 46.0334 92.47C46.0334 93.1659 46.6367 93.73 47.3808 93.73Z" fill="#14E2BE"/>
<path d="M52.0964 93.73C52.8405 93.73 53.4437 93.1659 53.4437 92.47C53.4437 91.7742 52.8405 91.2101 52.0964 91.2101C51.3523 91.2101 50.7491 91.7742 50.7491 92.47C50.7491 93.1659 51.3523 93.73 52.0964 93.73Z" fill="#14E2BE"/>
<path d="M56.812 93.73C57.5561 93.73 58.1593 93.1659 58.1593 92.47C58.1593 91.7742 57.5561 91.2101 56.812 91.2101C56.0679 91.2101 55.4647 91.7742 55.4647 92.47C55.4647 93.1659 56.0679 93.73 56.812 93.73Z" fill="#14E2BE"/>
<g clip-path="url(#clip0)">
<path d="M52.3355 133.048C51.5688 133.884 50.5283 134.332 49.5152 134.332C47.3658 134.332 45.5723 132.794 45.5723 130.015C45.5723 127.236 47.3658 125.712 49.5152 125.712C50.5283 125.712 51.5825 126.101 52.3492 126.937L52.9653 126.295C52.0069 125.264 50.7611 124.741 49.5152 124.741C46.7771 124.741 44.6414 126.758 44.6414 130.015C44.6414 133.287 46.8455 135.288 49.5152 135.288C50.7611 135.288 52.0069 134.781 52.9653 133.735L52.3355 133.048ZM68.0112 124.846H66.9707L64.1368 133.989L61.2617 124.846H60.5909L57.7022 133.989L54.8409 124.846H53.814L57.1819 135.184H58.2224L59.7558 130.687L60.9331 126.654L62.0832 130.672L63.6165 135.184H64.657L68.0112 124.846ZM70.4892 124.816V135.184H69.5446V124.816H70.4892ZM69.2707 121.485C69.2707 122.575 70.7904 122.575 70.7904 121.485C70.7904 120.394 69.2707 120.394 69.2707 121.485ZM73.1724 124.846V135.184H74.1038V129.163C74.1038 127.281 75.4725 125.727 77.2251 125.712C77.7861 125.712 78.3477 125.862 78.8406 126.19L79.2649 125.354C78.6352 124.936 77.937 124.726 77.2251 124.741C76.0204 124.741 74.6784 125.294 74.0896 126.698L74.0488 124.846H73.1724ZM84.9602 135.333C86.4662 135.333 88.1225 134.661 89.0402 133.346L88.3692 132.764C87.6573 133.78 86.2059 134.332 84.9602 134.332C83.0022 134.332 81.2909 132.928 81.0992 130.493H89.6284C89.9982 126.459 87.6159 124.682 84.9602 124.682C82.2904 124.682 80.1412 126.923 80.1412 130.015C80.1412 133.302 82.2904 135.333 84.9602 135.333ZM81.0992 129.597C81.3187 127.072 83.0022 125.623 84.9602 125.623C87.233 125.623 88.7662 127.042 88.7935 129.597H81.0992Z" fill="#14E2B2"/>
<path d="M28.8205 130.057C28.8205 129.301 29.3831 128.687 30.0774 128.687H38.9042C39.5985 128.687 40.1611 129.301 40.1611 130.057V137.63C40.1611 138.387 39.5985 139 38.9042 139H30.0774C29.7444 139 29.425 138.856 29.1893 138.599C28.9536 138.342 28.821 137.994 28.8205 137.63V130.057ZM30.0806 130.408V137.281C30.0806 137.467 30.221 137.625 30.3943 137.625H38.5873C38.6287 137.625 38.6696 137.616 38.7078 137.599C38.746 137.581 38.7807 137.556 38.8098 137.524C38.839 137.492 38.862 137.454 38.8777 137.412C38.8933 137.37 38.9013 137.326 38.901 137.281V130.406C38.9007 130.315 38.8676 130.228 38.8089 130.164C38.7502 130.099 38.6706 130.063 38.5873 130.062H30.3943C30.3529 130.062 30.312 130.071 30.2738 130.088C30.2356 130.105 30.2009 130.131 30.1718 130.163C30.1426 130.195 30.1195 130.233 30.1039 130.275C30.0883 130.316 30.0803 130.361 30.0806 130.406V130.408ZM20 130.057C20 129.301 20.5683 128.687 21.2657 128.687H26.2947C26.994 128.687 27.5604 129.301 27.5604 130.057V137.63C27.5604 138.387 26.9921 139 26.2947 139H21.2664C21.1008 139.001 20.9367 138.966 20.7835 138.898C20.6302 138.829 20.4908 138.729 20.3733 138.601C20.2557 138.474 20.1622 138.323 20.0981 138.156C20.0341 137.99 20.0007 137.811 20 137.63V130.057ZM21.2601 130.408V137.281C21.2601 137.467 21.4012 137.625 21.5751 137.625H25.9853C26.1554 137.625 26.3003 137.471 26.3003 137.281V130.406C26.2999 130.315 26.2665 130.228 26.2076 130.164C26.1486 130.099 26.0688 130.062 25.9853 130.062H21.5751C21.405 130.062 21.2601 130.216 21.2601 130.406V130.408ZM33.2307 118.369C33.2307 117.613 33.7978 117 34.4857 117H38.9061C39.5991 117 40.1611 117.614 40.1611 118.369V125.943C40.1611 126.699 39.5941 127.312 38.9061 127.312H34.4857C33.7927 127.312 33.2307 126.699 33.2307 125.943V118.369ZM34.4908 118.72V125.593C34.4908 125.779 34.6326 125.937 34.8077 125.937H38.5841C38.7542 125.937 38.901 125.783 38.901 125.593V118.719C38.9 118.628 38.8663 118.54 38.807 118.476C38.7477 118.412 38.6677 118.376 38.5841 118.375H34.8077C34.7241 118.376 34.644 118.412 34.5848 118.477C34.5255 118.541 34.4918 118.628 34.4908 118.719V118.72ZM20 118.369C20 117.613 20.5607 117 21.2582 117H30.7125C31.4074 117 31.9707 117.614 31.9707 118.369V125.943C31.9707 126.699 31.4099 127.312 30.7125 127.312H21.2582C20.925 127.313 20.6053 127.169 20.3694 126.912C20.1335 126.655 20.0007 126.307 20 125.943V118.369ZM21.2601 118.72V125.593C21.2601 125.779 21.4006 125.937 21.5751 125.937H30.3956C30.437 125.937 30.478 125.929 30.5163 125.911C30.5545 125.894 30.5893 125.869 30.6186 125.837C30.6478 125.805 30.671 125.767 30.6868 125.725C30.7026 125.683 30.7106 125.638 30.7106 125.593V118.719C30.7099 118.628 30.6765 118.541 30.6176 118.476C30.5586 118.412 30.4789 118.376 30.3956 118.375H21.5751C21.5337 118.375 21.4926 118.384 21.4544 118.401C21.4161 118.419 21.3814 118.444 21.3521 118.476C21.3228 118.508 21.2997 118.546 21.2839 118.588C21.2681 118.629 21.26 118.674 21.2601 118.719V118.72Z" fill="#14E2B2"/>
</g>
<line x1="134" y1="66.5" x2="475" y2="66.5" stroke="#ACA8A8"/>
<rect x="240.5" y="49.5" width="119" height="35" rx="7.5" fill="white" stroke="#ACA8A8"/>
<path d="M302.479 58L300.189 65H298.449L296.909 60.26L295.319 65H293.589L291.289 58H292.969L294.549 62.92L296.199 58H297.699L299.299 62.96L300.929 58H302.479ZM305.684 65.12C305.13 65.12 304.594 65.0467 304.074 64.9C303.56 64.7467 303.147 64.55 302.834 64.31L303.384 63.09C303.684 63.31 304.04 63.4867 304.454 63.62C304.867 63.7533 305.28 63.82 305.694 63.82C306.154 63.82 306.494 63.7533 306.714 63.62C306.934 63.48 307.044 63.2967 307.044 63.07C307.044 62.9033 306.977 62.7667 306.844 62.66C306.717 62.5467 306.55 62.4567 306.344 62.39C306.144 62.3233 305.87 62.25 305.524 62.17C304.99 62.0433 304.554 61.9167 304.214 61.79C303.874 61.6633 303.58 61.46 303.334 61.18C303.094 60.9 302.974 60.5267 302.974 60.06C302.974 59.6533 303.084 59.2867 303.304 58.96C303.524 58.6267 303.854 58.3633 304.294 58.17C304.74 57.9767 305.284 57.88 305.924 57.88C306.37 57.88 306.807 57.9333 307.234 58.04C307.66 58.1467 308.034 58.3 308.354 58.5L307.854 59.73C307.207 59.3633 306.56 59.18 305.914 59.18C305.46 59.18 305.124 59.2533 304.904 59.4C304.69 59.5467 304.584 59.74 304.584 59.98C304.584 60.22 304.707 60.4 304.954 60.52C305.207 60.6333 305.59 60.7467 306.104 60.86C306.637 60.9867 307.074 61.1133 307.414 61.24C307.754 61.3667 308.044 61.5667 308.284 61.84C308.53 62.1133 308.654 62.4833 308.654 62.95C308.654 63.35 308.54 63.7167 308.314 64.05C308.094 64.3767 307.76 64.6367 307.314 64.83C306.867 65.0233 306.324 65.12 305.684 65.12ZM273.828 77.12C273.115 77.12 272.468 76.9667 271.888 76.66C271.315 76.3467 270.862 75.9167 270.528 75.37C270.202 74.8167 270.038 74.1933 270.038 73.5C270.038 72.8067 270.202 72.1867 270.528 71.64C270.862 71.0867 271.315 70.6567 271.888 70.35C272.468 70.0367 273.118 69.88 273.838 69.88C274.445 69.88 274.992 69.9867 275.478 70.2C275.972 70.4133 276.385 70.72 276.718 71.12L275.678 72.08C275.205 71.5333 274.618 71.26 273.918 71.26C273.485 71.26 273.098 71.3567 272.758 71.55C272.418 71.7367 272.152 72 271.958 72.34C271.772 72.68 271.678 73.0667 271.678 73.5C271.678 73.9333 271.772 74.32 271.958 74.66C272.152 75 272.418 75.2667 272.758 75.46C273.098 75.6467 273.485 75.74 273.918 75.74C274.618 75.74 275.205 75.4633 275.678 74.91L276.718 75.87C276.385 76.2767 275.972 76.5867 275.478 76.8C274.985 77.0133 274.435 77.12 273.828 77.12ZM280.077 77.08C279.51 77.08 279 76.9633 278.547 76.73C278.1 76.49 277.75 76.16 277.497 75.74C277.244 75.32 277.117 74.8433 277.117 74.31C277.117 73.7767 277.244 73.3 277.497 72.88C277.75 72.46 278.1 72.1333 278.547 71.9C279 71.66 279.51 71.54 280.077 71.54C280.644 71.54 281.15 71.66 281.597 71.9C282.044 72.1333 282.394 72.46 282.647 72.88C282.9 73.3 283.027 73.7767 283.027 74.31C283.027 74.8433 282.9 75.32 282.647 75.74C282.394 76.16 282.044 76.49 281.597 76.73C281.15 76.9633 280.644 77.08 280.077 77.08ZM280.077 75.8C280.477 75.8 280.804 75.6667 281.057 75.4C281.317 75.1267 281.447 74.7633 281.447 74.31C281.447 73.8567 281.317 73.4967 281.057 73.23C280.804 72.9567 280.477 72.82 280.077 72.82C279.677 72.82 279.347 72.9567 279.087 73.23C278.827 73.4967 278.697 73.8567 278.697 74.31C278.697 74.7633 278.827 75.1267 279.087 75.4C279.347 75.6667 279.677 75.8 280.077 75.8ZM287.34 71.54C288.006 71.54 288.543 71.74 288.95 72.14C289.363 72.54 289.57 73.1333 289.57 73.92V77H288.01V74.16C288.01 73.7333 287.916 73.4167 287.73 73.21C287.543 72.9967 287.273 72.89 286.92 72.89C286.526 72.89 286.213 73.0133 285.98 73.26C285.746 73.5 285.63 73.86 285.63 74.34V77H284.07V71.62H285.56V72.25C285.766 72.0233 286.023 71.85 286.33 71.73C286.636 71.6033 286.973 71.54 287.34 71.54ZM294.254 71.54C294.92 71.54 295.457 71.74 295.864 72.14C296.277 72.54 296.484 73.1333 296.484 73.92V77H294.924V74.16C294.924 73.7333 294.83 73.4167 294.644 73.21C294.457 72.9967 294.187 72.89 293.834 72.89C293.44 72.89 293.127 73.0133 292.894 73.26C292.66 73.5 292.544 73.86 292.544 74.34V77H290.984V71.62H292.474V72.25C292.68 72.0233 292.937 71.85 293.244 71.73C293.55 71.6033 293.887 71.54 294.254 71.54ZM303.226 74.33C303.226 74.35 303.216 74.49 303.196 74.75H299.126C299.2 75.0833 299.373 75.3467 299.646 75.54C299.92 75.7333 300.26 75.83 300.666 75.83C300.946 75.83 301.193 75.79 301.406 75.71C301.626 75.6233 301.83 75.49 302.016 75.31L302.846 76.21C302.34 76.79 301.6 77.08 300.626 77.08C300.02 77.08 299.483 76.9633 299.016 76.73C298.55 76.49 298.19 76.16 297.936 75.74C297.683 75.32 297.556 74.8433 297.556 74.31C297.556 73.7833 297.68 73.31 297.926 72.89C298.18 72.4633 298.523 72.1333 298.956 71.9C299.396 71.66 299.886 71.54 300.426 71.54C300.953 71.54 301.43 71.6533 301.856 71.88C302.283 72.1067 302.616 72.4333 302.856 72.86C303.103 73.28 303.226 73.77 303.226 74.33ZM300.436 72.72C300.083 72.72 299.786 72.82 299.546 73.02C299.306 73.22 299.16 73.4933 299.106 73.84H301.756C301.703 73.5 301.556 73.23 301.316 73.03C301.076 72.8233 300.783 72.72 300.436 72.72ZM306.865 77.08C306.292 77.08 305.775 76.9633 305.315 76.73C304.862 76.49 304.505 76.16 304.245 75.74C303.992 75.32 303.865 74.8433 303.865 74.31C303.865 73.7767 303.992 73.3 304.245 72.88C304.505 72.46 304.862 72.1333 305.315 71.9C305.775 71.66 306.292 71.54 306.865 71.54C307.432 71.54 307.925 71.66 308.345 71.9C308.772 72.1333 309.082 72.47 309.275 72.91L308.065 73.56C307.785 73.0667 307.382 72.82 306.855 72.82C306.448 72.82 306.112 72.9533 305.845 73.22C305.578 73.4867 305.445 73.85 305.445 74.31C305.445 74.77 305.578 75.1333 305.845 75.4C306.112 75.6667 306.448 75.8 306.855 75.8C307.388 75.8 307.792 75.5533 308.065 75.06L309.275 75.72C309.082 76.1467 308.772 76.48 308.345 76.72C307.925 76.96 307.432 77.08 306.865 77.08ZM313.721 76.74C313.568 76.8533 313.378 76.94 313.151 77C312.931 77.0533 312.698 77.08 312.451 77.08C311.811 77.08 311.315 76.9167 310.961 76.59C310.615 76.2633 310.441 75.7833 310.441 75.15V72.94H309.611V71.74H310.441V70.43H312.001V71.74H313.341V72.94H312.001V75.13C312.001 75.3567 312.058 75.5333 312.171 75.66C312.291 75.78 312.458 75.84 312.671 75.84C312.918 75.84 313.128 75.7733 313.301 75.64L313.721 76.74ZM314.597 71.62H316.157V77H314.597V71.62ZM315.377 70.87C315.09 70.87 314.857 70.7867 314.677 70.62C314.497 70.4533 314.407 70.2467 314.407 70C314.407 69.7533 314.497 69.5467 314.677 69.38C314.857 69.2133 315.09 69.13 315.377 69.13C315.664 69.13 315.897 69.21 316.077 69.37C316.257 69.53 316.347 69.73 316.347 69.97C316.347 70.23 316.257 70.4467 316.077 70.62C315.897 70.7867 315.664 70.87 315.377 70.87ZM320.165 77.08C319.598 77.08 319.088 76.9633 318.635 76.73C318.188 76.49 317.838 76.16 317.585 75.74C317.331 75.32 317.205 74.8433 317.205 74.31C317.205 73.7767 317.331 73.3 317.585 72.88C317.838 72.46 318.188 72.1333 318.635 71.9C319.088 71.66 319.598 71.54 320.165 71.54C320.731 71.54 321.238 71.66 321.685 71.9C322.131 72.1333 322.481 72.46 322.735 72.88C322.988 73.3 323.115 73.7767 323.115 74.31C323.115 74.8433 322.988 75.32 322.735 75.74C322.481 76.16 322.131 76.49 321.685 76.73C321.238 76.9633 320.731 77.08 320.165 77.08ZM320.165 75.8C320.565 75.8 320.891 75.6667 321.145 75.4C321.405 75.1267 321.535 74.7633 321.535 74.31C321.535 73.8567 321.405 73.4967 321.145 73.23C320.891 72.9567 320.565 72.82 320.165 72.82C319.765 72.82 319.435 72.9567 319.175 73.23C318.915 73.4967 318.785 73.8567 318.785 74.31C318.785 74.7633 318.915 75.1267 319.175 75.4C319.435 75.6667 319.765 75.8 320.165 75.8ZM327.428 71.54C328.094 71.54 328.631 71.74 329.038 72.14C329.451 72.54 329.658 73.1333 329.658 73.92V77H328.098V74.16C328.098 73.7333 328.004 73.4167 327.818 73.21C327.631 72.9967 327.361 72.89 327.008 72.89C326.614 72.89 326.301 73.0133 326.068 73.26C325.834 73.5 325.718 73.86 325.718 74.34V77H324.158V71.62H325.648V72.25C325.854 72.0233 326.111 71.85 326.418 71.73C326.724 71.6033 327.061 71.54 327.428 71.54Z" fill="#14E2BE"/>
<defs>
<clipPath id="clip0">
<rect width="69.6667" height="22" fill="white" transform="translate(20 117)"/>
</clipPath>
</defs>
</svg>
