<svg width="133" height="42" viewBox="0 0 133 42" fill="none" xmlns="http://www.w3.org/2000/svg">
<path d="M61.7314 30.6364C60.2677 32.2335 58.2813 33.0891 56.3472 33.0891C52.2438 33.0891 48.8199 30.1515 48.8199 24.8467C48.8199 19.5419 52.2438 16.6328 56.3472 16.6328C58.2813 16.6328 60.2939 17.3743 61.7575 18.9715L62.9337 17.7451C61.1041 15.7772 58.7257 14.779 56.3472 14.779C51.1199 14.779 47.0426 18.6292 47.0426 24.8467C47.0426 31.0927 51.2506 34.9144 56.3472 34.9144C58.7257 34.9144 61.1041 33.9447 62.9337 31.9483L61.7314 30.6364ZM91.6578 14.9786H89.6714L84.2611 32.4332L78.7724 14.9786H77.4917L71.9769 32.4332L66.5144 14.9786H64.5541L70.9837 34.7148H72.9701L75.8974 26.1301L78.1451 18.4296L80.3406 26.1016L83.2679 34.7148H85.2543L91.6578 14.9786ZM96.3885 14.9216V34.7148H94.5851V14.9216H96.3885ZM94.0623 8.5615C94.0623 10.6435 96.9635 10.6435 96.9635 8.5615C96.9635 6.4795 94.0623 6.4795 94.0623 8.5615ZM101.511 14.9786V34.7148H103.289V23.221C103.289 19.6274 105.902 16.6613 109.248 16.6328C110.319 16.6328 111.391 16.918 112.332 17.5455L113.142 15.9483C111.94 15.1497 110.607 14.7504 109.248 14.779C106.948 14.779 104.386 15.8342 103.262 18.5152L103.184 14.9786H101.511ZM124.015 35C126.89 35 130.052 33.7166 131.804 31.2068L130.523 30.0945C129.164 32.0339 126.393 33.0891 124.015 33.0891C120.277 33.0891 117.01 30.4082 116.644 25.7594H132.927C133.633 18.0588 129.085 14.6649 124.015 14.6649C118.918 14.6649 114.815 18.943 114.815 24.8467C114.815 31.1212 118.918 35 124.015 35ZM116.644 24.0481C117.063 19.2282 120.277 16.4617 124.015 16.4617C128.354 16.4617 131.281 19.1711 131.333 24.0481H116.644Z" fill="#14E2B2"/>
<path d="M16.8391 24.927C16.8391 23.4832 17.9132 22.3125 19.2387 22.3125H36.0898C37.4153 22.3125 38.4894 23.4845 38.4894 24.927V39.3855C38.4894 40.8292 37.4153 42 36.0898 42H19.2387C18.6029 42 17.9931 41.7246 17.5432 41.2344C17.0933 40.7442 16.8401 40.0792 16.8391 39.3855V24.927ZM19.2447 25.5964V38.7174C19.2447 39.0731 19.5129 39.375 19.8437 39.375H35.4848C35.5638 39.375 35.6419 39.3579 35.7149 39.3248C35.7878 39.2918 35.854 39.2433 35.9096 39.1821C35.9653 39.121 36.0093 39.0485 36.0392 38.9688C36.0691 38.889 36.0843 38.8036 36.0838 38.7174V25.5937C36.0832 25.4202 36.02 25.254 35.9079 25.1309C35.7958 25.0079 35.6438 24.9379 35.4848 24.9362H19.8437C19.7647 24.9362 19.6865 24.9532 19.6136 24.9863C19.5407 25.0194 19.4745 25.0679 19.4188 25.129C19.3632 25.1901 19.3191 25.2626 19.2892 25.3424C19.2594 25.4221 19.2442 25.5076 19.2447 25.5937V25.5964ZM0 24.927C0 23.4832 1.08492 22.3125 2.41641 22.3125H12.0171C13.3522 22.3125 14.4335 23.4845 14.4335 24.927V39.3855C14.4335 40.8292 13.3486 42 12.0171 42H2.41761C2.10155 42.0015 1.7883 41.9351 1.49575 41.8046C1.2032 41.674 0.937076 41.4819 0.712579 41.2391C0.488082 40.9963 0.309607 40.7077 0.187342 40.3896C0.0650775 40.0716 0.00141838 39.7304 0 39.3855V24.927ZM2.40559 25.5964V38.7174C2.40559 39.0731 2.67501 39.375 3.00698 39.375H11.4265C11.7513 39.375 12.0279 39.081 12.0279 38.7174V25.5937C12.027 25.4199 11.9634 25.2534 11.8508 25.1304C11.7383 25.0073 11.5859 24.9375 11.4265 24.9362H3.00698C2.68223 24.9362 2.40559 25.2302 2.40559 25.5937V25.5964ZM25.2586 2.6145C25.2586 1.17075 26.3412 0 27.6546 0H36.0934C37.4165 0 38.4894 1.17206 38.4894 2.6145V17.073C38.4894 18.5167 37.4069 19.6875 36.0934 19.6875H27.6546C26.3315 19.6875 25.2586 18.5154 25.2586 17.073V2.6145ZM27.6642 3.28387V16.4049C27.6642 16.7606 27.9349 17.0625 28.2692 17.0625H35.4788C35.8035 17.0625 36.0838 16.7685 36.0838 16.4049V3.28125C36.0819 3.10716 36.0174 2.94084 35.9043 2.8181C35.7911 2.69536 35.6383 2.62602 35.4788 2.625H28.2692C28.1096 2.62636 27.9568 2.69599 27.8437 2.81894C27.7305 2.94189 27.6661 3.10835 27.6642 3.28256V3.28387ZM0 2.6145C0 1.17075 1.07049 0 2.40198 0H20.4511C21.7778 0 22.8531 1.17206 22.8531 2.6145V17.073C22.8531 18.5167 21.7826 19.6875 20.4511 19.6875H2.40198C1.76588 19.6878 1.15565 19.4127 0.705295 18.9225C0.25494 18.4323 0.00127467 17.7671 0 17.073V2.6145ZM2.40559 3.28387V16.4049C2.40559 16.7606 2.67381 17.0625 3.00698 17.0625H19.8461C19.9252 17.0625 20.0035 17.0455 20.0765 17.0124C20.1495 16.9793 20.2159 16.9309 20.2718 16.8698C20.3276 16.8087 20.3719 16.7362 20.402 16.6565C20.4322 16.5767 20.4476 16.4912 20.4475 16.4049V3.28125C20.4462 3.10762 20.3825 2.9415 20.2699 2.81873C20.1574 2.69595 20.0052 2.62637 19.8461 2.625H3.00698C2.9279 2.625 2.8496 2.64202 2.77656 2.67508C2.70352 2.70814 2.63717 2.7566 2.5813 2.81767C2.52544 2.87875 2.48117 2.95125 2.45102 3.03102C2.42087 3.11079 2.40543 3.19627 2.40559 3.28256V3.28387Z" fill="#14E2B2"/>
</svg>
